<svg id="Capa_1" enable-background="new 0 0 512 512" height="512" viewBox="0 0 512 512" width="512" xmlns="http://www.w3.org/2000/svg"><g><g><path d="m421.789 502h-331.541c-28.064 0-51.518-23.446-51.513-51.513 0-28.45 23.063-51.513 51.513-51.513h331.542v103.026z" fill="#eaf0f0"/></g><g><g><path d="m38.735 450.487c.002.465.003.931.005 1.396.029-2.415.028-2.881-.005-1.396z" fill="#49dd8a"/></g><g><path d="m90.242 10c-28.438 0-51.507 23.056-51.507 51.507 0 1.31.116 368.242.026 388.215.398-28.104 23.3-50.749 51.481-50.749h331.545v-388.973z" fill="#ff7e96"/></g></g><g><path d="m421.789 47.809v175.583l38.825-24.715c7.878-5.015 12.648-13.706 12.648-23.044v-80.066c0-9.338-4.77-18.03-12.648-23.044z" fill="#ffce62"/></g><g><path d="m473.262 244.56v80.06c0 9.34-4.77 18.03-12.65 23.05l-38.82 24.71v-148.99l20.89-13.29 17.93 11.41c7.88 5.02 12.65 13.71 12.65 23.05z" fill="#00d5f5"/></g><g><path d="m334.432 313.104h-148.827c-19.362 0-35.059-15.696-35.059-35.059 0-19.362 15.696-35.059 35.059-35.059h148.827c19.362 0 35.059 15.696 35.059 35.059 0 19.362-15.697 35.059-35.059 35.059z" fill="#eaf0f0"/></g><g><path d="m483.262 175.632v-80.065c0-12.824-6.459-24.592-17.277-31.48l-34.198-21.77v-32.317c0-5.523-4.478-10-10-10h-116.928c-5.522 0-10 4.477-10 10s4.478 10 10 10h106.928v368.973h-302.554v-368.973h107.799c5.522 0 10-4.477 10-10s-4.478-10-10-10h-126.79c-38.41 0-61.526 32.258-61.504 67.965.007 14.474.112 349.85.031 379.096-.12 34.684 25.413 64.939 61.478 64.939h331.542c5.522 0 10-4.477 10-10l-.003-124.127 34.197-21.769c10.819-6.892 17.278-18.661 17.278-31.484v-80.06c0-12.823-6.459-24.593-17.281-31.487l-4.681-2.979 4.685-2.982c10.819-6.887 17.278-18.655 17.278-31.48zm-394.915 213.387c-14.568.455-28.763 6.211-39.538 16.05.02-56.59.008-322.631 0-337.108-.014-24.447 13.43-47.271 40.424-47.935v368.958c-.297.004-.59.026-.886.035zm1.9 102.981c-22.826 0-41.835-19.322-41.488-42.134.319-22.547 18.929-40.891 41.482-40.891l321.548-.001v32.935h-312.556c-5.522 0-10 4.477-10 10s4.478 10 10 10h312.557v30.091zm373.015-167.38c0 5.952-2.999 11.416-8.021 14.614l-23.449 14.927v-125.281l10.889-6.928 12.559 7.991c5.023 3.2 8.022 8.664 8.022 14.616zm0-148.988c0 5.952-2.997 11.413-8.018 14.608l-23.455 14.931v-139.143l23.455 14.931c5.021 3.196 8.018 8.657 8.018 14.608z"/><path d="m159.891 178.565 4.773-12.532h32.813l4.719 12.504c1.924 5.097 7.783 7.751 12.887 5.825 5.168-1.95 7.775-7.719 5.826-12.887l-28.75-76.185c-.036-.093-.072-.187-.11-.279-1.821-4.421-6.085-7.275-10.866-7.275-.005 0-.01 0-.015 0-4.787.006-9.05 2.873-10.862 7.303-.03.075-.061.15-.089.227l-29.015 76.181c-1.966 5.161.624 10.938 5.785 12.904 5.161 1.967 10.938-.624 12.904-5.786zm21.256-55.807 8.783 23.275h-17.648z"/><path d="m309.152 179.772c1.748 3.226 5.123 5.235 8.792 5.235h51.547c5.522 0 10-4.477 10-10s-4.478-10-10-10h-33.096l40.274-61.811c2.003-3.074 2.161-6.998.413-10.224s-5.123-5.235-8.792-5.235h-48.763c-5.522 0-10 4.477-10 10s4.478 10 10 10h30.312l-40.274 61.811c-2.003 3.074-2.161 6.998-.413 10.224z"/><path d="m246.217 146.372h39.771c5.522 0 10-4.477 10-10s-4.478-10-10-10h-39.771c-5.522 0-10 4.477-10 10s4.478 10 10 10z"/><path d="m140.546 278.045c0 24.845 20.213 45.059 45.059 45.059h148.827c24.846 0 45.059-20.213 45.059-45.059s-20.213-45.059-45.059-45.059h-148.827c-24.846 0-45.059 20.214-45.059 45.059zm218.945 0c0 13.817-11.241 25.059-25.059 25.059h-148.827c-13.817 0-25.059-11.241-25.059-25.059s11.241-25.059 25.059-25.059h148.827c13.817 0 25.059 11.242 25.059 25.059z"/><path d="m252.029 13.83c1.645 3.946 5.703 6.447 9.968 6.141 4.169-.299 7.777-3.287 8.897-7.304 2.375-8.52-7.186-15.747-14.772-11.238-4.22 2.509-5.944 7.883-4.093 12.401z"/></g></g></svg>